<svg width="18" height="21" viewBox="0 0 18 21" fill="none" xmlns="http://www.w3.org/2000/svg">
<path fill-rule="evenodd" clip-rule="evenodd" d="M2.89922 1.20816C3.04891 0.994166 3.29362 0.866699 3.55477 0.866699H13.777C14.0382 0.866699 14.2829 0.994166 14.4325 1.20816L16.9881 4.86174C17.0821 4.99617 17.1326 5.15624 17.1326 5.32028V18.1078C17.1326 18.7872 16.8814 19.449 16.4186 19.9452C15.9541 20.4433 15.3116 20.7346 14.6289 20.7346H2.70292C1.27241 20.7346 0.199219 19.5009 0.199219 18.1078V5.32028C0.199219 5.15624 0.249646 4.99617 0.343669 4.86174L2.89922 1.20816ZM3.97148 2.4667L2.53507 4.52028H14.7967L13.3603 2.4667H3.97148ZM15.5326 6.12028H1.79922V18.1078C1.79922 18.7242 2.25936 19.1346 2.70292 19.1346H14.6289C14.8498 19.1346 15.074 19.041 15.2485 18.8539C15.4247 18.6649 15.5326 18.3974 15.5326 18.1078V6.12028ZM5.25848 8.17386C5.70031 8.17386 6.05848 8.53203 6.05848 8.97386C6.05848 9.74799 6.3458 10.4801 6.84154 11.0117C7.33552 11.5414 7.99308 11.8274 8.66589 11.8274C9.33869 11.8274 9.99625 11.5414 10.4902 11.0117C10.986 10.4801 11.2733 9.74799 11.2733 8.97386C11.2733 8.53203 11.6315 8.17386 12.0733 8.17386C12.5151 8.17386 12.8733 8.53203 12.8733 8.97386C12.8733 10.1377 12.4426 11.2642 11.6603 12.103C10.8763 12.9437 9.80048 13.4274 8.66589 13.4274C7.53129 13.4274 6.45548 12.9437 5.67143 12.103C4.88915 11.2642 4.45848 10.1377 4.45848 8.97386C4.45848 8.53203 4.81665 8.17386 5.25848 8.17386Z" fill="white"/>
</svg>
