<svg width="32" height="32" viewBox="0 0 32 32" fill="none" xmlns="http://www.w3.org/2000/svg">
<path d="M22.4527 5C23.1808 4.99939 23.9017 5.14413 24.5731 5.42575C25.2445 5.70736 25.8529 6.12018 26.3627 6.64C27.4131 7.70638 28.0019 9.14316 28.0019 10.64C28.0019 12.1368 27.4131 13.5736 26.3627 14.64L16.0027 25.13L5.6427 14.64C4.59229 13.5736 4.00349 12.1368 4.00349 10.64C4.00349 9.14316 4.59229 7.70638 5.6427 6.64C6.1528 6.12055 6.76128 5.70795 7.43262 5.42629C8.10395 5.14464 8.82468 4.99957 9.5527 4.99957C10.2807 4.99957 11.0015 5.14464 11.6728 5.42629C12.3441 5.70795 12.9526 6.12055 13.4627 6.64L16.0027 9.24L18.5327 6.66C19.0409 6.13399 19.65 5.71586 20.3236 5.43064C20.9971 5.14542 21.7213 4.99895 22.4527 5ZM22.4527 3C21.4583 2.99916 20.4738 3.19686 19.5568 3.5815C18.6398 3.96615 17.8089 4.53 17.1127 5.24L16.0027 6.36L14.8927 5.24C14.1957 4.53129 13.3645 3.96841 12.4477 3.58419C11.5309 3.19997 10.5468 3.0021 9.5527 3.0021C8.55864 3.0021 7.57452 3.19997 6.65772 3.58419C5.74091 3.96841 4.90976 4.53129 4.2127 5.24C2.79458 6.68363 2 8.62636 2 10.65C2 12.6736 2.79458 14.6164 4.2127 16.06L16.0027 28L27.7927 16.06C29.2108 14.6164 30.0054 12.6736 30.0054 10.65C30.0054 8.62636 29.2108 6.68363 27.7927 5.24C27.0958 4.53091 26.2648 3.96765 25.3479 3.58306C24.4311 3.19848 23.4469 3.00028 22.4527 3Z" fill="#0259EB"/>
</svg>
